<?xml version="1.0" standalone="no"?>
<!DOCTYPE svg PUBLIC "-//W3C//DTD SVG 20010904//EN"
 "http://www.w3.org/TR/2001/REC-SVG-20010904/DTD/svg10.dtd">
<svg version="1.0" xmlns="http://www.w3.org/2000/svg"
 width="100.000000pt" height="100.000000pt" viewBox="0 0 100.000000 100.000000"
 preserveAspectRatio="xMidYMid meet">
<metadata>
Created by potrace 1.15, written by Peter Selinger 2001-2017
</metadata>
<g transform="translate(0.000000,100.000000) scale(0.100000,-0.100000)"
fill="#000000" stroke="none">
<path d="M673 726 l-122 -54 -110 33 c-140 43 -168 47 -211 32 -29 -10 -35
-17 -35 -41 0 -26 9 -35 73 -74 l74 -45 -77 -33 -76 -34 -56 40 c-31 22 -65
40 -75 40 -34 0 -58 -19 -58 -47 0 -34 67 -183 92 -205 39 -34 149 -19 304 41
40 16 74 24 74 19 0 -5 -10 -63 -22 -128 -11 -64 -18 -125 -15 -134 8 -21 45
-20 83 3 33 20 36 26 136 243 l63 137 100 50 c141 70 187 105 183 139 -5 44
-58 72 -137 72 -58 0 -81 -7 -188 -54z m253 -6 l28 -11 -41 -27 c-23 -15 -85
-49 -140 -76 l-98 -48 -80 -174 c-109 -239 -120 -246 -83 -53 15 84 26 154 24
157 -3 2 -54 -16 -114 -42 -125 -52 -218 -79 -265 -74 -29 3 -35 10 -70 82
-21 43 -36 80 -34 82 2 2 28 -14 57 -36 30 -22 63 -40 75 -40 11 0 155 60 320
134 314 141 352 152 421 126z"/>
</g>
</svg>
