<svg id="svg" xmlns="http://www.w3.org/2000/svg" xmlns:xlink="http://www.w3.org/1999/xlink" width="400" height="400" viewBox="0, 0, 400,400"><g id="svgg"><path id="path0" d="M269.287 109.666 L 220.574 131.185 176.582 117.829 C 120.477 100.796,109.150 99.091,92.000 105.097 C 66.532 114.016,71.735 129.617,107.388 151.235 L 136.775 169.054 106.135 182.567 L 75.496 196.079 53.097 180.040 C 4.680 145.369,-12.272 165.278,14.393 225.497 C 39.455 282.097,62.164 285.718,158.204 248.426 C 174.592 242.062,188.000 238.619,188.000 240.775 C 188.000 242.930,184.120 265.909,179.377 291.838 C 168.104 353.469,173.709 364.343,206.454 344.376 C 219.580 336.372,220.969 333.896,260.943 247.270 L 286.198 192.540 326.099 172.562 C 402.370 134.375,415.183 117.800,384.408 97.129 C 359.608 80.471,327.448 83.974,269.287 109.666 M370.510 112.194 L 381.541 116.388 365.170 127.194 C 356.166 133.137,331.069 146.733,309.399 157.406 L 270.000 176.812 238.130 246.573 C 194.540 341.989,190.095 344.754,204.623 267.418 C 210.897 234.021,215.216 205.882,214.220 204.887 C 213.225 203.891,192.828 211.342,168.895 221.444 C 72.360 262.192,55.688 261.824,34.842 218.492 C 16.556 180.481,16.903 179.783,44.032 200.024 C 72.841 221.518,66.573 223.014,202.115 162.294 C 327.419 106.160,342.691 101.617,370.510 112.194 M146.173 130.385 C 190.191 143.143,191.387 143.862,179.540 150.428 C 165.054 158.458,158.676 157.253,132.203 141.483 C 91.552 117.267,94.055 115.278,146.173 130.385 " stroke="none" fill="#000000" fill-rule="evenodd"></path></g></svg>