<?xml version="1.0" encoding="utf-8"?>
<!-- Generator: Adobe Illustrator 21.0.2, SVG Export Plug-In . SVG Version: 6.00 Build 0)  -->
<svg version="1.1" id="Layer_1" xmlns="http://www.w3.org/2000/svg" xmlns:xlink="http://www.w3.org/1999/xlink" x="0px" y="0px"
	 viewBox="0 0 100 100" style="enable-background:new 0 0 100 100;" xml:space="preserve">
<polygon points="18.4,76.7 14.4,71.9 13.4,72.4 11.7,80.3 "/>
<polygon points="11.3,81.2 4,85.2 20.6,83.5 11.5,81.1 "/>
<polygon points="12,80.8 21.7,83.4 22.6,82.9 18.8,77.1 "/>
<polygon points="12.9,73.1 3.7,84.7 11.2,80.6 "/>
<path d="M94.6,35.6c0.1,0,0.2,0,0.2-0.1l1.1-1c0.1-0.1,0.2-0.3,0-0.5c-0.1-0.1-0.4-0.2-0.5,0l-1.1,1c-0.1,0.1-0.2,0.3,0,0.5
	C94.4,35.6,94.5,35.6,94.6,35.6z"/>
<path d="M42.3,69.1c0.1,0.1,0.2,0.2,0.3,0.2c0,0,0.1,0,0.1,0c1-0.4,1.9-0.7,2.8-1.1c0.2-0.1,0.3-0.3,0.2-0.5
	c-0.1-0.2-0.3-0.3-0.5-0.2c-0.9,0.4-1.9,0.7-2.8,1.1C42.3,68.7,42.2,68.9,42.3,69.1z"/>
<path d="M33.9,71.6c-1,0.3-1.9,0.6-2.9,0.9c-0.2,0.1-0.3,0.3-0.2,0.4c0,0.2,0.2,0.2,0.3,0.2c0,0,0.1,0,0.1,0c1-0.3,1.9-0.6,2.9-0.9
	c0.2-0.1,0.3-0.3,0.2-0.4C34.3,71.7,34.1,71.6,33.9,71.6z"/>
<path d="M57.6,15c0,0.2,0.2,0.3,0.3,0.3c0,0,0,0,0.1,0c1-0.2,2-0.2,3-0.3c0.2,0,0.3-0.2,0.3-0.4c0-0.2-0.1-0.3-0.4-0.3
	c-1,0-2,0.1-3.1,0.3C57.7,14.6,57.6,14.8,57.6,15z"/>
<path d="M39.6,69.7c-0.9,0.3-1.9,0.7-2.9,1c-0.2,0.1-0.3,0.3-0.2,0.4c0,0.1,0.2,0.2,0.3,0.2c0,0,0.1,0,0.1,0c1-0.3,1.9-0.6,2.9-1
	c0.2-0.1,0.3-0.3,0.2-0.4C40,69.7,39.8,69.6,39.6,69.7z"/>
<path d="M28.1,73.3c-1,0.3-1.9,0.6-2.9,0.8c-0.2,0.1-0.3,0.2-0.2,0.4c0,0.2,0.2,0.3,0.3,0.3c0,0,0.1,0,0.1,0c1-0.3,1.9-0.6,2.9-0.8
	c0.2-0.1,0.3-0.2,0.2-0.4C28.5,73.4,28.3,73.3,28.1,73.3z"/>
<path d="M43.4,38.4c-0.2,0.1-0.3,0.3-0.2,0.5c0.4,0.9,0.9,1.8,1.5,2.7c0.1,0.1,0.2,0.2,0.3,0.2c0.1,0,0.1,0,0.2-0.1
	c0.2-0.1,0.2-0.3,0.1-0.5c-0.5-0.8-1-1.7-1.4-2.6C43.7,38.4,43.5,38.3,43.4,38.4z"/>
<path d="M75.5,30.2c0-1-0.1-2.1-0.2-3.1c0-0.2-0.2-0.3-0.4-0.3c-0.2,0-0.3,0.2-0.3,0.4c0.1,1,0.2,2,0.2,3c0,0.2,0.2,0.3,0.3,0.3
	c0,0,0,0,0,0C75.3,30.6,75.5,30.4,75.5,30.2z"/>
<path d="M74.4,24.6C74.4,24.6,74.5,24.6,74.4,24.6c0.3-0.1,0.4-0.2,0.3-0.4c-0.3-1-0.6-2-1-2.9c-0.1-0.2-0.3-0.3-0.5-0.2
	c-0.2,0.1-0.3,0.3-0.2,0.5c0.4,0.9,0.7,1.8,1,2.8C74.1,24.5,74.2,24.6,74.4,24.6z"/>
<path d="M74.7,36.6c0.2,0,0.3-0.1,0.3-0.3c0.2-1,0.3-2,0.4-3c0-0.2-0.1-0.4-0.3-0.4c-0.2,0-0.4,0.1-0.4,0.3c-0.1,1-0.2,2-0.4,3
	C74.3,36.4,74.4,36.6,74.7,36.6C74.6,36.6,74.6,36.6,74.7,36.6z"/>
<path d="M74.4,39.3c0-0.2-0.1-0.4-0.3-0.4c-0.2,0-0.4,0.1-0.4,0.3l0,0.2c-0.2,0.9-0.5,1.8-0.8,2.7c-0.1,0.2,0,0.4,0.2,0.4
	c0,0,0.1,0,0.1,0c0.1,0,0.3-0.1,0.3-0.2c0.3-0.9,0.5-1.8,0.8-2.7L74.4,39.3z"/>
<path d="M54.9,15.2c-1,0.3-2,0.6-2.9,1c-0.2,0.1-0.3,0.3-0.2,0.5c0.1,0.1,0.2,0.2,0.3,0.2c0,0,0.1,0,0.1,0c0.9-0.4,1.9-0.7,2.8-1
	c0.2-0.1,0.3-0.2,0.2-0.4C55.3,15.3,55.1,15.2,54.9,15.2z"/>
<path d="M46.7,19.8c0.1,0.1,0.2,0.1,0.3,0.1c0.1,0,0.2,0,0.2-0.1c0.8-0.6,1.6-1.2,2.5-1.7c0.2-0.1,0.2-0.3,0.1-0.5
	c-0.1-0.2-0.3-0.2-0.5-0.1c-0.9,0.5-1.8,1.1-2.5,1.7C46.6,19.4,46.6,19.6,46.7,19.8z"/>
<path d="M56.5,50.1c0,0.2,0.1,0.4,0.3,0.4c1,0.2,2,0.4,3,0.6c0,0,0,0,0,0c0.2,0,0.3-0.1,0.3-0.3c0-0.2-0.1-0.4-0.3-0.4
	c-1-0.1-2-0.3-2.9-0.5C56.7,49.8,56.5,49.9,56.5,50.1z"/>
<path d="M77.3,47.2c-0.7,0.3-1.3,0.6-2,0.8c-0.3,0.1-0.5,0.2-0.8,0.3c-0.2,0.1-0.3,0.3-0.2,0.4c0.1,0.1,0.2,0.2,0.3,0.2
	c0,0,0.1,0,0.1,0c0.3-0.1,0.5-0.2,0.8-0.3c0.7-0.3,1.4-0.5,2-0.8c0.2-0.1,0.3-0.3,0.2-0.5C77.7,47.2,77.4,47.1,77.3,47.2z"/>
<path d="M42.1,26.6c-0.2,0-0.4,0.1-0.4,0.3c-0.2,1-0.4,2-0.4,3.1c0,0.2,0.1,0.4,0.3,0.4c0,0,0,0,0,0c0.2,0,0.3-0.1,0.3-0.3
	c0-1,0.2-2,0.4-2.9C42.4,26.8,42.3,26.7,42.1,26.6z"/>
<path d="M56,62.2c-0.8,0.5-1.7,1-2.6,1.5c-0.2,0.1-0.2,0.3-0.1,0.5c0.1,0.1,0.2,0.2,0.3,0.2c0.1,0,0.1,0,0.2,0
	c0.9-0.5,1.8-1,2.6-1.5c0.2-0.1,0.2-0.3,0.1-0.5C56.4,62.2,56.2,62.1,56,62.2z"/>
<path d="M41.7,32.6c-0.2,0-0.3,0.2-0.3,0.4c0.1,1,0.4,2,0.7,3c0,0.2,0.2,0.2,0.3,0.2c0,0,0.1,0,0.1,0c0.2-0.1,0.3-0.3,0.2-0.4
	c-0.3-1-0.5-1.9-0.7-2.9C42.1,32.7,41.9,32.6,41.7,32.6z"/>
<path d="M63.7,14.7c0,0.2,0.1,0.4,0.3,0.4c1,0.1,2,0.3,2.9,0.6c0,0,0.1,0,0.1,0c0.1,0,0.3-0.1,0.3-0.2c0.1-0.2,0-0.4-0.2-0.4
	c-0.9-0.3-1.9-0.5-3-0.7C63.9,14.4,63.7,14.5,63.7,14.7z"/>
<path d="M42.9,24.4c0.1,0,0.1,0,0.2,0c0.1,0,0.2-0.1,0.3-0.2l0.1-0.1c0.4-0.8,1-1.6,1.6-2.3c0.1-0.1,0.1-0.4,0-0.5
	c-0.1-0.1-0.4-0.1-0.5,0c-0.7,0.8-1.2,1.6-1.7,2.4L42.7,24C42.7,24.1,42.7,24.3,42.9,24.4z"/>
<path d="M85,43.2c0.1,0.1,0.2,0.1,0.3,0.1c0.1,0,0.1,0,0.2-0.1c0.8-0.6,1.6-1.2,2.4-1.8c0.2-0.1,0.2-0.3,0.1-0.5s-0.3-0.2-0.5-0.1
	c-0.8,0.6-1.6,1.2-2.4,1.8C84.9,42.8,84.8,43,85,43.2z"/>
<path d="M67.4,53c0.1,0.1,0.1,0.1,0.2,0.1c0.1,0,0.2,0,0.3-0.1c0.6-0.8,1.2-1.6,1.8-2.5c0,0,0,0,0,0c0.7-0.2,1.4-0.3,2.2-0.5
	c0.2-0.1,0.3-0.2,0.2-0.4c-0.1-0.2-0.2-0.3-0.4-0.2c-1,0.3-1.9,0.5-2.9,0.7c-0.2,0-0.3,0.2-0.3,0.4c0,0.1,0.1,0.2,0.3,0.3
	c-0.4,0.6-0.9,1.3-1.4,1.9C67.2,52.7,67.2,52.9,67.4,53z"/>
<path d="M65.8,50.4c-1,0.1-1.9,0.1-2.9,0.1c0,0,0,0,0,0h-0.1c-0.2,0-0.3,0.2-0.3,0.3c0,0.2,0.2,0.4,0.4,0.3c1,0,1.9,0,2.9-0.1
	c0.2,0,0.3-0.2,0.3-0.4C66.1,50.5,66,50.4,65.8,50.4z"/>
<path d="M70,16.6l-0.2-0.1c-0.2-0.1-0.4-0.1-0.5,0.1c-0.1,0.2-0.1,0.4,0.1,0.5l0.2,0.1c0.7,0.5,1.4,1.1,2,1.9
	c0.1,0.1,0.2,0.1,0.3,0.1c0.1,0,0.2,0,0.2-0.1c0.2-0.1,0.2-0.3,0.1-0.5C71.5,17.8,70.8,17.1,70,16.6z"/>
<path d="M47,43.6c-0.1-0.1-0.3-0.2-0.5,0c-0.1,0.1-0.2,0.3,0,0.5c0.7,0.8,1.4,1.5,2.1,2.2c0.1,0.1,0.1,0.1,0.2,0.1
	c0.1,0,0.2,0,0.3-0.1c0.1-0.1,0.1-0.4,0-0.5C48.3,45.1,47.6,44.4,47,43.6z"/>
<path d="M53.9,49.5c0.1,0,0.3-0.1,0.3-0.2c0.1-0.2,0-0.4-0.2-0.5c-0.9-0.4-1.8-0.8-2.6-1.4c-0.2-0.1-0.4-0.1-0.5,0.1
	c-0.1,0.2-0.1,0.4,0.1,0.5c0.9,0.5,1.8,1,2.7,1.4C53.8,49.5,53.9,49.5,53.9,49.5z"/>
<path d="M47.9,66.9c0.1,0.1,0.2,0.2,0.3,0.2c0,0,0.1,0,0.1,0c0.9-0.4,1.9-0.8,2.8-1.3c0.2-0.1,0.2-0.3,0.2-0.5
	c-0.1-0.2-0.3-0.2-0.5-0.2C49.9,65.6,49,66,48,66.4C47.9,66.5,47.8,66.7,47.9,66.9z"/>
<path d="M82.5,44.4c-0.9,0.5-1.7,1.1-2.6,1.5c-0.2,0.1-0.2,0.3-0.1,0.5c0.1,0.1,0.2,0.2,0.3,0.2c0.1,0,0.1,0,0.2,0
	c0.9-0.5,1.8-1,2.6-1.5c0.2-0.1,0.2-0.3,0.1-0.5S82.7,44.2,82.5,44.4z"/>
<path d="M72.3,44.6c-0.2-0.1-0.4,0-0.5,0.2c-0.4,0.9-0.8,1.8-1.3,2.7c-0.1,0.2,0,0.4,0.1,0.5c0.1,0,0.1,0,0.2,0
	c0.1,0,0.2-0.1,0.3-0.2c0.5-0.9,0.9-1.8,1.3-2.8C72.6,44.9,72.5,44.7,72.3,44.6z"/>
<path d="M58.8,61.2c0.1,0,0.1,0,0.2-0.1c0.8-0.6,1.7-1.2,2.4-1.8c0.2-0.1,0.2-0.3,0.1-0.5c-0.1-0.2-0.3-0.2-0.5-0.1
	c-0.8,0.6-1.6,1.2-2.4,1.8c-0.2,0.1-0.2,0.3-0.1,0.5C58.5,61.2,58.6,61.2,58.8,61.2z"/>
<path d="M89.7,39.5c0.1,0.1,0.2,0.1,0.3,0.1c0.1,0,0.2,0,0.2-0.1c0.8-0.6,1.5-1.3,2.3-2c0.1-0.1,0.2-0.3,0-0.5
	c-0.1-0.1-0.3-0.2-0.5,0c-0.8,0.7-1.5,1.3-2.3,2C89.6,39.1,89.6,39.3,89.7,39.5z"/>
<path d="M63.5,57.5c0.1,0,0.2,0,0.2-0.1c0.8-0.7,1.5-1.4,2.2-2.1c0.1-0.1,0.1-0.4,0-0.5c-0.1-0.1-0.4-0.1-0.5,0
	c-0.7,0.7-1.4,1.4-2.1,2.1c-0.1,0.1-0.2,0.4,0,0.5C63.3,57.5,63.4,57.5,63.5,57.5z"/>
<path d="M20.5,75.9c0,0.2,0.2,0.3,0.3,0.3c0,0,0.1,0,0.1,0l1.4-0.4c0.2-0.1,0.3-0.2,0.2-0.4c-0.1-0.2-0.2-0.3-0.4-0.2l-1.4,0.4
	C20.6,75.5,20.5,75.7,20.5,75.9z"/>
</svg>
